<?xml version="1.0" encoding="utf-8"?>
<!-- Generator: Adobe Illustrator 27.0.1, SVG Export Plug-In . SVG Version: 6.00 Build 0)  -->
<svg version="1.1" id="Calque_1" xmlns="http://www.w3.org/2000/svg" x="0px" y="0px"
     viewBox="0 0 233 86" style="enable-background:new 0 0 233 86;" xml:space="preserve">
<style type="text/css">
	.st0{fill:#FFFFFF;}
</style>
    <g>
	<path class="st0" d="M29.3,28.6V33c0,1.3,1,2.3,2.3,2.3h4.3v-6.6H29.3z"/>
        <path class="st0" d="M39.9,35.3h4.4c1.3,0,2.3-1,2.3-2.3v-4.4h-6.7V35.3z"/>
        <polygon class="st0" points="35.8,17.9 32.3,17.9 31.5,17.9 29.3,17.9 29.3,20.2 29.3,21.8 29.3,24.5 35.8,24.5 	"/>
        <polygon class="st0" points="46.6,24.5 46.6,20.2 46.6,20.2 46.6,17.9 44.3,17.9 43.6,17.9 39.9,17.9 39.9,24.5 	"/>
        <path class="st0" d="M67.1,10.9H55.4c-1,0-1.8,0.8-1.8,1.8c0,1,0.8,1.8,1.8,1.8h9.9v41c0,1.6-0.2,3.2-0.5,4.9l0,0.3L54.1,46.7
		c-0.3-0.4-0.9-0.7-1.4-0.7c-0.6,0-1.1,0.3-1.4,0.7L48.1,51l-8.8-11.7c-0.3-0.4-0.9-0.7-1.4-0.7c-0.6,0-1.1,0.3-1.4,0.7L27.8,51
		l-3.2-4.3c-0.3-0.4-0.9-0.7-1.4-0.7c-0.6,0-1.1,0.3-1.4,0.7L11.1,60.6l0-0.3c-0.3-1.7-0.5-3.3-0.5-4.9v-41h9.9c1,0,1.8-0.8,1.8-1.8
		c0-1-0.8-1.8-1.8-1.8H8.8c-1,0-1.8,0.8-1.8,1.8v42.8c0,5.9,1.7,11.7,4.9,16.7c0.7,1.1,1.5,2.2,2.3,3.2C17.4,79,21.5,82,26,83.9
		c0.3,0.1,0.6,0.2,0.8,0.2c0.6,0,1.1-0.3,1.4-0.7l9.7-12.9l0.1,0.1l9.5,12.7c0.2,0.3,0.5,0.5,0.9,0.6l0.1,0c0.2,0,0.3,0.1,0.5,0.1
		c0.2,0,0.5,0,0.7-0.1c4.6-1.9,8.7-4.9,11.9-8.7c0.8-1,1.6-2.1,2.3-3.2c3.2-5,4.9-10.7,4.9-16.7V12.6C68.8,11.6,68,10.9,67.1,10.9
		 M59.5,72.3c-2.6,3.3-6,6.1-9.8,7.9l-0.1,0l-0.1-0.1L39.4,66.5c-0.3-0.4-0.9-0.7-1.4-0.7c-0.6,0-1.1,0.3-1.4,0.7L26.3,80.2l-0.1,0
		c-3.8-1.8-7.2-4.5-9.8-7.9l-0.1-0.1l0.1-0.1l21.6-28.9L48.2,57L59.5,72.3L59.5,72.3z"/>
        <path class="st0" d="M52.2,1.8c0-0.9-0.7-1.7-1.6-1.8c-0.9-0.1-1.7,0.6-1.9,1.5l-0.3,1.8c-0.6,1.4-2.2,2.3-4.2,2.3
		c-2.1,0-4.5-1-4.5-3.7c0-1-0.8-1.8-1.8-1.8c-1,0-1.8,0.8-1.8,1.8c0,2.8-2.4,3.7-4.5,3.7c-2,0-3.6-0.9-4.2-2.3l0,0l-0.3-1.8
		C27,0.6,26.3,0,25.4,0c0,0-0.1,0-0.1,0c-0.9,0.1-1.6,0.8-1.6,1.8c0,0.1,0,0.2,0,0.3c0.1,0.5,0.3,1.8,0.4,2c0,0,0,0,0,0l1.5,8.8
		c0.1,0.8,0.9,1.5,1.7,1.5h21.3c0.9,0,1.6-0.6,1.7-1.5l1.5-8.7c0,0,0,0,0,0c0.1-0.3,0.3-1.7,0.4-2.2C52.2,1.9,52.2,1.8,52.2,1.8
		 M47.1,10.9H28.8l-0.4-2.4l0.2,0.1c1,0.3,2,0.5,3.1,0.5c2.5,0,4.7-0.9,6.2-2.5l0.1-0.1L38,6.6C39.5,8.2,41.7,9,44.2,9
		c1.1,0,2.1-0.2,3.1-0.5l0.2-0.1L47.1,10.9z"/>
        <path class="st0" d="M78,63.7v-3.8h1.2v3.8c0,1.2,0.6,1.9,1.7,1.9c1,0,1.7-0.6,1.7-1.8v-3.8h1.2v3.8c0,2-1.1,3-2.9,3
		C79.1,66.6,78,65.6,78,63.7"/>
        <polygon class="st0" points="85.2,59.8 86.3,59.8 89.8,64.4 89.8,59.8 91,59.8 91,66.5 90,66.5 86.3,61.7 86.3,66.5 85.2,66.5 	"/>
        <rect x="92.7" y="59.8" class="st0" width="1.2" height="6.6"/>
        <polygon class="st0" points="95,59.8 96.3,59.8 98.3,64.9 100.3,59.8 101.5,59.8 98.8,66.5 97.7,66.5 	"/>
        <polygon class="st0" points="102.6,59.8 107.5,59.8 107.5,60.9 103.8,60.9 103.8,62.6 107.1,62.6 107.1,63.6 103.8,63.6
		103.8,65.4 107.6,65.4 107.6,66.5 102.6,66.5 	"/>
        <path class="st0" d="M108.9,59.8h3c0.8,0,1.5,0.2,1.9,0.7c0.4,0.4,0.5,0.9,0.5,1.4v0c0,1.1-0.7,1.7-1.6,2l1.8,2.5h-1.4l-1.6-2.3
		h-1.5v2.3h-1.2V59.8z M111.8,63.1c0.8,0,1.4-0.4,1.4-1.1v0c0-0.7-0.5-1.1-1.4-1.1h-1.7v2.2H111.8z"/>
        <path class="st0" d="M115.2,65.5l0.7-0.8c0.6,0.6,1.3,0.9,2.1,0.9c0.7,0,1.2-0.3,1.2-0.8v0c0-0.5-0.3-0.7-1.5-1
		c-1.4-0.3-2.2-0.8-2.2-2v0c0-1.1,0.9-1.9,2.3-1.9c1,0,1.7,0.3,2.4,0.8l-0.6,0.9c-0.6-0.4-1.2-0.7-1.8-0.7c-0.7,0-1.1,0.4-1.1,0.8v0
		c0,0.5,0.3,0.7,1.6,1c1.4,0.3,2.1,0.8,2.1,1.9v0c0,1.2-1,2-2.4,2C117,66.6,116,66.2,115.2,65.5"/>
        <rect x="121.8" y="59.8" class="st0" width="1.2" height="6.6"/>
        <polygon class="st0" points="126.3,60.9 124.2,60.9 124.2,59.8 129.5,59.8 129.5,60.9 127.4,60.9 127.4,66.5 126.3,66.5 	"/>
        <path class="st0" d="M130.7,59.8h4.9v1h-3.8v1.7h3.3v1h-3.3v1.8h3.8v1h-5V59.8z M133.8,57.9l1,0.5l-1.2,0.9h-0.9L133.8,57.9z"/>
        <path class="st0" d="M139.3,65.5l0.7-0.8c0.6,0.6,1.3,0.9,2.1,0.9c0.7,0,1.2-0.3,1.2-0.8v0c0-0.5-0.3-0.7-1.5-1
		c-1.4-0.3-2.2-0.8-2.2-2v0c0-1.1,0.9-1.9,2.3-1.9c1,0,1.7,0.3,2.4,0.8l-0.6,0.9c-0.6-0.4-1.2-0.7-1.8-0.7c-0.7,0-1.1,0.4-1.1,0.8v0
		c0,0.5,0.3,0.7,1.6,1c1.4,0.3,2.1,0.8,2.1,1.9v0c0,1.2-1,2-2.4,2C141.1,66.6,140.1,66.2,139.3,65.5"/>
        <path class="st0" d="M148,59.8h1.1l2.9,6.7h-1.2l-0.7-1.6h-3.1l-0.7,1.6h-1.2L148,59.8z M149.7,63.8l-1.1-2.7l-1.1,2.7H149.7z"/>
        <polygon class="st0" points="151.6,59.8 152.8,59.8 154.8,64.9 156.8,59.8 158.1,59.8 155.3,66.5 154.3,66.5 	"/>
        <path class="st0" d="M158.5,63.2L158.5,63.2c0-1.9,1.4-3.5,3.5-3.5c2,0,3.5,1.5,3.5,3.4v0c0,1.9-1.4,3.4-3.5,3.4
		C159.9,66.6,158.5,65,158.5,63.2 M164.2,63.2L164.2,63.2c0-1.3-0.9-2.4-2.3-2.4c-1.3,0-2.2,1.1-2.2,2.3v0c0,1.3,0.9,2.4,2.3,2.4
		C163.3,65.5,164.2,64.5,164.2,63.2"/>
        <rect x="166.8" y="59.8" class="st0" width="1.2" height="6.6"/>
        <polygon class="st0" points="169.7,59.8 174.6,59.8 174.6,60.9 170.9,60.9 170.9,62.6 174.2,62.6 174.2,63.6 170.9,63.6
		170.9,65.4 174.7,65.4 174.7,66.5 169.7,66.5 	"/>
        <polygon class="st0" points="77.9,71.5 79.2,71.5 81.2,74.7 83.2,71.5 84.5,71.5 84.5,78.2 83.3,78.2 83.3,73.4 81.2,76.5
		81.2,76.5 79.1,73.4 79.1,78.2 77.9,78.2 	"/>
        <path class="st0" d="M85.8,74.9L85.8,74.9c0-1.9,1.4-3.5,3.5-3.5c2,0,3.5,1.5,3.5,3.4v0c0,1.9-1.4,3.4-3.5,3.4S85.8,76.7,85.8,74.9
		 M91.5,74.9L91.5,74.9c0-1.3-0.9-2.4-2.3-2.4c-1.3,0-2.2,1.1-2.2,2.3v0c0,1.3,0.9,2.4,2.3,2.4C90.6,77.2,91.5,76.2,91.5,74.9"/>
        <polygon class="st0" points="94.1,71.5 95.2,71.5 98.8,76.1 98.8,71.5 99.9,71.5 99.9,78.2 98.9,78.2 95.3,73.4 95.3,78.2
		94.1,78.2 	"/>
        <polygon class="st0" points="103.2,72.6 101.1,72.6 101.1,71.5 106.5,71.5 106.5,72.6 104.4,72.6 104.4,78.2 103.2,78.2 	"/>
        <path class="st0" d="M110.4,71.5h3c0.8,0,1.4,0.2,1.7,0.6c0.3,0.3,0.4,0.7,0.4,1.1v0c0,0.8-0.5,1.2-0.9,1.5
		c0.8,0.3,1.3,0.7,1.3,1.6v0c0,1.2-1,1.8-2.5,1.8h-3.1V71.5z M114.4,73.4c0-0.5-0.4-0.8-1.2-0.8h-1.7v1.8h1.6
		C113.9,74.3,114.4,74,114.4,73.4L114.4,73.4z M113.4,75.3h-1.8v1.8h1.9c0.8,0,1.3-0.3,1.3-0.9v0C114.8,75.6,114.3,75.3,113.4,75.3"
        />
        <polygon class="st0" points="117.2,71.5 118.4,71.5 118.4,77.1 121.8,77.1 121.8,78.2 117.2,78.2 	"/>
        <path class="st0" d="M125.3,71.5h1.1l2.9,6.7h-1.2l-0.7-1.6h-3.1l-0.7,1.6h-1.2L125.3,71.5z M127,75.5l-1.1-2.7l-1.1,2.7H127z"/>
        <polygon class="st0" points="130.4,71.5 131.5,71.5 135.1,76.1 135.1,71.5 136.2,71.5 136.2,78.2 135.2,78.2 131.6,73.4
		131.6,78.2 130.4,78.2 	"/>
        <path class="st0" d="M137.6,74.9L137.6,74.9c0-1.9,1.4-3.5,3.4-3.5c1.2,0,2,0.4,2.6,1l-0.7,0.9c-0.5-0.5-1.1-0.8-1.9-0.8
		c-1.3,0-2.2,1-2.2,2.3v0c0,1.3,0.9,2.4,2.2,2.4c0.8,0,1.3-0.3,1.9-0.9l0.7,0.8c-0.7,0.7-1.5,1.2-2.7,1.2
		C139,78.3,137.6,76.8,137.6,74.9"/>
</g>
    <g>
	<path class="st0" d="M77,28.2l2-2.5c1.4,1.2,2.9,1.9,4.7,1.9c1.4,0,2.3-0.6,2.3-1.5v0c0-0.9-0.5-1.3-3.2-2
		c-3.2-0.8-5.2-1.7-5.2-4.8v0c0-2.9,2.3-4.7,5.5-4.7c2.3,0,4.3,0.7,5.9,2l-1.8,2.6c-1.4-1-2.8-1.6-4.1-1.6c-1.3,0-2,0.6-2,1.4v0
		c0,1,0.7,1.4,3.4,2.1c3.2,0.8,5,2,5,4.7v0c0,3.1-2.4,4.9-5.8,4.9C81.3,30.8,78.9,29.9,77,28.2z"/>
        <path class="st0" d="M92,14.8h11.9v3.1h-8.4v3.2h7.4v3.1h-7.4v3.3h8.6v3.1H92V14.8z"/>
        <path class="st0" d="M106.6,14.8h7.2c2,0,3.6,0.6,4.6,1.6c0.9,0.9,1.4,2.1,1.4,3.6v0c0,2.5-1.4,4.1-3.4,4.9l3.8,5.6h-4.1l-3.4-5
		H110v5h-3.5V14.8z M113.6,22.4c1.7,0,2.7-0.9,2.7-2.2v0c0-1.5-1-2.3-2.7-2.3H110v4.5H113.6z"/>
        <path class="st0" d="M120.6,14.8h3.8l4.1,11.1l4.1-11.1h3.7L130,30.6h-3.1L120.6,14.8z"/>
        <path class="st0" d="M138.5,14.8h3.5v15.8h-3.5V14.8z"/>
        <path class="st0" d="M144.7,22.7L144.7,22.7c0-4.5,3.4-8.2,8.2-8.2c3,0,4.7,1,6.2,2.4l-2.2,2.5c-1.2-1.1-2.5-1.8-4-1.8
		c-2.7,0-4.6,2.2-4.6,4.9v0c0,2.7,1.9,5,4.6,5c1.8,0,2.9-0.7,4.1-1.8l2.2,2.2c-1.6,1.7-3.4,2.8-6.5,2.8
		C148.2,30.8,144.7,27.2,144.7,22.7z"/>
        <path class="st0" d="M161.6,14.8h11.9v3.1H165v3.2h7.4v3.1H165v3.3h8.6v3.1h-12V14.8z"/>
        <path class="st0" d="M78,36.9h6.1c5,0,8.4,3.4,8.4,7.8v0c0,4.4-3.4,7.9-8.4,7.9H78V36.9z M81.5,40v9.5h2.7c2.8,0,4.7-1.9,4.7-4.7v0
		c0-2.8-1.9-4.7-4.7-4.7H81.5z"/>
        <path class="st0" d="M95.2,36.9h11.9V40h-8.4v3.2h7.4v3.1h-7.4v3.3h8.6v3.1h-12V36.9z"/>
        <path class="st0" d="M108.7,50.3l2-2.5c1.4,1.2,2.9,1.9,4.7,1.9c1.4,0,2.3-0.6,2.3-1.5v0c0-0.9-0.5-1.3-3.2-2
		c-3.2-0.8-5.2-1.7-5.2-4.8v0c0-2.9,2.3-4.7,5.5-4.7c2.3,0,4.3,0.7,5.9,2l-1.8,2.6c-1.4-1-2.8-1.6-4.1-1.6c-1.3,0-2,0.6-2,1.4v0
		c0,1,0.7,1.4,3.4,2.1c3.2,0.8,5,2,5,4.7v0c0,3.1-2.4,4.9-5.8,4.9C113,52.8,110.6,52,108.7,50.3z"/>
        <path class="st0" d="M128.9,50.3l2-2.5c1.4,1.2,2.9,1.9,4.7,1.9c1.4,0,2.3-0.6,2.3-1.5v0c0-0.9-0.5-1.3-3.2-2
		c-3.2-0.8-5.2-1.7-5.2-4.8v0c0-2.9,2.3-4.7,5.5-4.7c2.3,0,4.3,0.7,5.9,2l-1.8,2.6c-1.4-1-2.8-1.6-4.1-1.6c-1.3,0-2,0.6-2,1.4v0
		c0,1,0.7,1.4,3.4,2.1c3.2,0.8,5,2,5,4.7v0c0,3.1-2.4,4.9-5.8,4.9C133.2,52.8,130.8,52,128.9,50.3z"/>
        <path class="st0" d="M143.9,36.9h6.4c3.8,0,6,2.2,6,5.4v0c0,3.6-2.8,5.5-6.4,5.5h-2.6v4.7h-3.5V36.9z M150.1,44.8
		c1.7,0,2.7-1,2.7-2.4v0c0-1.6-1.1-2.4-2.8-2.4h-2.7v4.8H150.1z"/>
        <path class="st0" d="M157.8,44.8L157.8,44.8c0-4.5,3.5-8.2,8.4-8.2c4.9,0,8.3,3.6,8.3,8.1v0c0,4.5-3.5,8.1-8.4,8.1
		C161.3,52.9,157.8,49.3,157.8,44.8z M170.9,44.8L170.9,44.8c0-2.7-2-5-4.8-5c-2.8,0-4.7,2.2-4.7,4.9v0c0,2.7,2,5,4.8,5
		C169,49.7,170.9,47.5,170.9,44.8z"/>
        <path class="st0" d="M177.1,36.9h7.2c2,0,3.6,0.6,4.6,1.6c0.9,0.9,1.3,2.1,1.3,3.6v0c0,2.5-1.4,4.1-3.4,4.9l3.8,5.6h-4.1l-3.4-5
		h-2.7v5h-3.5V36.9z M184.1,44.5c1.7,0,2.7-0.9,2.7-2.2v0c0-1.5-1-2.3-2.7-2.3h-3.4v4.5H184.1z"/>
        <path class="st0" d="M196.6,40.1h-4.8v-3.2h13.1v3.2h-4.8v12.6h-3.5V40.1z"/>
        <path class="st0" d="M205.6,50.3l2-2.5c1.4,1.2,2.9,1.9,4.7,1.9c1.4,0,2.3-0.6,2.3-1.5v0c0-0.9-0.5-1.3-3.2-2
		c-3.2-0.8-5.2-1.7-5.2-4.8v0c0-2.9,2.3-4.7,5.5-4.7c2.3,0,4.3,0.7,5.9,2l-1.8,2.6c-1.4-1-2.8-1.6-4.1-1.6c-1.3,0-2,0.6-2,1.4v0
		c0,1,0.7,1.4,3.4,2.1c3.2,0.8,5,2,5,4.7v0c0,3.1-2.4,4.9-5.8,4.9C209.9,52.8,207.5,52,205.6,50.3z"/>
</g>
</svg>
