<?xml version="1.0" encoding="utf-8"?>
<!-- Generator: Adobe Illustrator 27.0.1, SVG Export Plug-In . SVG Version: 6.00 Build 0)  -->
<svg version="1.1" id="Calque_1" xmlns="http://www.w3.org/2000/svg" x="0px" y="0px"
     viewBox="0 0 75 86" style="enable-background:new 0 0 233 86;" xml:space="preserve">
<style type="text/css">
	.st0{fill:#009cdd;}
</style>
    <g>
	<path class="st0" d="M29.3,28.6V33c0,1.3,1,2.3,2.3,2.3h4.3v-6.6H29.3z"/>
        <path class="st0" d="M39.9,35.3h4.4c1.3,0,2.3-1,2.3-2.3v-4.4h-6.7V35.3z"/>
        <polygon class="st0" points="35.8,17.9 32.3,17.9 31.5,17.9 29.3,17.9 29.3,20.2 29.3,21.8 29.3,24.5 35.8,24.5 	"/>
        <polygon class="st0" points="46.6,24.5 46.6,20.2 46.6,20.2 46.6,17.9 44.3,17.9 43.6,17.9 39.9,17.9 39.9,24.5 	"/>
        <path class="st0" d="M67.1,10.9H55.4c-1,0-1.8,0.8-1.8,1.8c0,1,0.8,1.8,1.8,1.8h9.9v41c0,1.6-0.2,3.2-0.5,4.9l0,0.3L54.1,46.7
		c-0.3-0.4-0.9-0.7-1.4-0.7c-0.6,0-1.1,0.3-1.4,0.7L48.1,51l-8.8-11.7c-0.3-0.4-0.9-0.7-1.4-0.7c-0.6,0-1.1,0.3-1.4,0.7L27.8,51
		l-3.2-4.3c-0.3-0.4-0.9-0.7-1.4-0.7c-0.6,0-1.1,0.3-1.4,0.7L11.1,60.6l0-0.3c-0.3-1.7-0.5-3.3-0.5-4.9v-41h9.9c1,0,1.8-0.8,1.8-1.8
		c0-1-0.8-1.8-1.8-1.8H8.8c-1,0-1.8,0.8-1.8,1.8v42.8c0,5.9,1.7,11.7,4.9,16.7c0.7,1.1,1.5,2.2,2.3,3.2C17.4,79,21.5,82,26,83.9
		c0.3,0.1,0.6,0.2,0.8,0.2c0.6,0,1.1-0.3,1.4-0.7l9.7-12.9l0.1,0.1l9.5,12.7c0.2,0.3,0.5,0.5,0.9,0.6l0.1,0c0.2,0,0.3,0.1,0.5,0.1
		c0.2,0,0.5,0,0.7-0.1c4.6-1.9,8.7-4.9,11.9-8.7c0.8-1,1.6-2.1,2.3-3.2c3.2-5,4.9-10.7,4.9-16.7V12.6C68.8,11.6,68,10.9,67.1,10.9
		 M59.5,72.3c-2.6,3.3-6,6.1-9.8,7.9l-0.1,0l-0.1-0.1L39.4,66.5c-0.3-0.4-0.9-0.7-1.4-0.7c-0.6,0-1.1,0.3-1.4,0.7L26.3,80.2l-0.1,0
		c-3.8-1.8-7.2-4.5-9.8-7.9l-0.1-0.1l0.1-0.1l21.6-28.9L48.2,57L59.5,72.3L59.5,72.3z"/>
        <path class="st0" d="M52.2,1.8c0-0.9-0.7-1.7-1.6-1.8c-0.9-0.1-1.7,0.6-1.9,1.5l-0.3,1.8c-0.6,1.4-2.2,2.3-4.2,2.3
		c-2.1,0-4.5-1-4.5-3.7c0-1-0.8-1.8-1.8-1.8c-1,0-1.8,0.8-1.8,1.8c0,2.8-2.4,3.7-4.5,3.7c-2,0-3.6-0.9-4.2-2.3l0,0l-0.3-1.8
		C27,0.6,26.3,0,25.4,0c0,0-0.1,0-0.1,0c-0.9,0.1-1.6,0.8-1.6,1.8c0,0.1,0,0.2,0,0.3c0.1,0.5,0.3,1.8,0.4,2c0,0,0,0,0,0l1.5,8.8
		c0.1,0.8,0.9,1.5,1.7,1.5h21.3c0.9,0,1.6-0.6,1.7-1.5l1.5-8.7c0,0,0,0,0,0c0.1-0.3,0.3-1.7,0.4-2.2C52.2,1.9,52.2,1.8,52.2,1.8
		 M47.1,10.9H28.8l-0.4-2.4l0.2,0.1c1,0.3,2,0.5,3.1,0.5c2.5,0,4.7-0.9,6.2-2.5l0.1-0.1L38,6.6C39.5,8.2,41.7,9,44.2,9
		c1.1,0,2.1-0.2,3.1-0.5l0.2-0.1L47.1,10.9z"/>
</g>
</svg>
